<?xml version="1.0" encoding="UTF-8" standalone="no"?>
<!DOCTYPE svg PUBLIC "-//W3C//DTD SVG 1.1//EN"
 "http://www.w3.org/Graphics/SVG/1.1/DTD/svg11.dtd">
<!-- Generated by graphviz version 2.40.1 (20161225.0304)
 -->
<!-- Pages: 1 -->
<svg width="679pt" height="1516pt"
 viewBox="0.00 0.00 679.00 1515.98" xmlns="http://www.w3.org/2000/svg" xmlns:xlink="http://www.w3.org/1999/xlink">
<g id="graph0" class="graph" transform="scale(1 1) rotate(0) translate(4 1511.9789)">
<polygon fill="#ffffff" stroke="transparent" points="-4,4 -4,-1511.9789 675,-1511.9789 675,4 -4,4"/>
<g id="cluster_arpa_top" class="cluster">
<title>cluster_arpa</title>
<polygon fill="none" stroke="#000000" stroke-width=".5" points="274,-879.0955 274,-1166.259 636,-1166.259 636,-879.0955 274,-879.0955"/>
<text text-anchor="start" x="286.5" y="-907.4955" font-family="Times,serif" font-size="12.00" fill="#000000">arpa</text>
<text text-anchor="start" x="286.5" y="-890.0955" font-family="Times,serif" font-size="10.00" fill="#000000">(2022&#45;06&#45;26 09:55:54 UTC)</text>
</g>
<g id="cluster_ip6.arpa_top" class="cluster">
<title>cluster_ip6.arpa</title>
<polygon fill="none" stroke="#000000" stroke-width=".5" points="227,-568.932 227,-856.0955 663,-856.0955 663,-568.932 227,-568.932"/>
<text text-anchor="start" x="239.5" y="-597.332" font-family="Times,serif" font-size="12.00" fill="#000000">ip6.arpa</text>
<text text-anchor="start" x="239.5" y="-579.932" font-family="Times,serif" font-size="10.00" fill="#000000">(2022&#45;06&#45;26 09:56:12 UTC)</text>
</g>
<g id="cluster_2.4.6.e.c.0.a.2.ip6.arpa_top" class="cluster">
<title>cluster_2.4.6.e.c.0.a.2.ip6.arpa</title>
<polygon fill="none" stroke="#000000" stroke-width=".5" points="8,-8 8,-314.3371 610,-314.3371 610,-8 8,-8"/>
<text text-anchor="start" x="20.5" y="-36.4" font-family="Times,serif" font-size="12.00" fill="#000000">2.4.6.e.c.0.a.2.ip6.arpa</text>
<text text-anchor="start" x="20.5" y="-19" font-family="Times,serif" font-size="10.00" fill="#000000">(2022&#45;06&#45;26 09:56:27 UTC)</text>
</g>
<g id="cluster_._top" class="cluster">
<title>cluster_.</title>
<polygon fill="none" stroke="#000000" stroke-width=".5" points="381,-1189.259 381,-1499.9789 659,-1499.9789 659,-1189.259 381,-1189.259"/>
<text text-anchor="start" x="393.5" y="-1217.659" font-family="Times,serif" font-size="12.00" fill="#000000">.</text>
<text text-anchor="start" x="393.5" y="-1200.259" font-family="Times,serif" font-size="10.00" fill="#000000">(2022&#45;06&#45;26 09:53:47 UTC)</text>
</g>
<g id="cluster_0.a.2.ip6.arpa_top" class="cluster">
<title>cluster_0.a.2.ip6.arpa</title>
<polygon fill="none" stroke="#000000" stroke-width=".5" points="260,-337.3371 260,-545.932 422,-545.932 422,-337.3371 260,-337.3371"/>
<text text-anchor="start" x="272.5" y="-365.7371" font-family="Times,serif" font-size="12.00" fill="#000000">0.a.2.ip6.arpa</text>
<text text-anchor="start" x="272.5" y="-348.3371" font-family="Times,serif" font-size="10.00" fill="#000000">(2022&#45;06&#45;26 09:56:21 UTC)</text>
</g>
<!-- cluster_arpa_top -->
<!-- cluster_._bottom -->
<!-- cluster_arpa_top&#45;&gt;cluster_._bottom -->
<g id="del&#45;arpa|." class="edge">
<title>cluster_arpa_top&#45;&gt;cluster_._bottom</title>
<path fill="none" stroke="#0a879a" stroke-width="5" d="M412.5782,-1173.4898C408.4745,-1178.2078 404.5808,-1183.6002 402,-1189.259"/>
<polygon fill="#0a879a" stroke="#0a879a" stroke-width="5" points="415.7428,-1176.5107 419.488,-1166.2581 409.4164,-1170.4659 415.7428,-1176.5107"/>
</g>
<!-- cluster_arpa_bottom -->
<!-- DNSKEY&#45;6|arpa|8|42581 -->
<g id="DNSKEY&#45;6|arpa|8|42581" class="node">
<title>DNSKEY&#45;6|arpa|8|42581</title>
<ellipse fill="#d3d3d3" stroke="#0a879a" stroke-width="1.5" cx="465" cy="-1104.3747" rx="60.623" ry="28.0702"/>
<text text-anchor="start" x="439" y="-1111.7747" font-family="Helvetica,sans-Serif" font-size="12.00" fill="#000000">DNSKEY</text>
<text text-anchor="start" x="430" y="-1101.3747" font-family="Times,serif" font-size="10.00" fill="#000000">alg=8, id=42581</text>
<text text-anchor="start" x="445.5" y="-1091.3747" font-family="Times,serif" font-size="10.00" fill="#000000">2048 bits</text>
</g>
<!-- DNSKEY&#45;6|arpa|8|42581&#45;&gt;cluster_arpa_top -->
<!-- DNSKEY&#45;6|arpa|8|42581&#45;&gt;DNSKEY&#45;6|arpa|8|42581 -->
<g id="RRSIG&#45;DNSKEY&#45;6|arpa|8|42581|DNSKEY&#45;6|arpa|8|42581|0a879a|solid" class="edge">
<title>DNSKEY&#45;6|arpa|8|42581&#45;&gt;DNSKEY&#45;6|arpa|8|42581</title>
<path fill="none" stroke="#0a879a" stroke-width="1.5" d="M532.3958,-1096.3261C539.3578,-1097.9071 543.8112,-1100.59 543.8112,-1104.3747 543.8112,-1109.7576 534.8032,-1112.9116 522.382,-1113.8367"/>
<polygon fill="#0a879a" stroke="#0a879a" stroke-width="1.5" points="532.773,-1092.8447 522.382,-1094.9128 531.7947,-1099.776 532.773,-1092.8447"/>
</g>
<!-- DS&#45;0|arpa|8|42581|1 -->
<g id="DS&#45;0|arpa|8|42581|1" class="node">
<title>DS&#45;0|arpa|8|42581|1</title>
<ellipse fill="#ffffff" stroke="#0a879a" stroke-width="1.5" cx="465" cy="-1272.2504" rx="53.9813" ry="28.9828"/>
<text text-anchor="start" x="449" y="-1273.6504" font-family="Helvetica,sans-Serif" font-size="12.00" fill="#000000">DS</text>
<image xlink:href="/static/images/dnssec_legend/warning.png" width="18.1818px" height="16px" preserveAspectRatio="xMinYMin meet" x="472.909" y="-1286.25"/>
<text text-anchor="start" x="439" y="-1260.2504" font-family="Times,serif" font-size="10.00" fill="#000000">digest alg=1</text>
</g>
<!-- DNSKEY&#45;6|arpa|8|42581&#45;&gt;DS&#45;0|arpa|8|42581|1 -->
<g id="digest&#45;DNSKEY&#45;6|arpa|8|42581|DS&#45;0|arpa|8|42581|1|d0d0d0|dashed" class="edge">
<title>DNSKEY&#45;6|arpa|8|42581&#45;&gt;DS&#45;0|arpa|8|42581|1</title>
<path fill="none" stroke="#d0d0d0" stroke-width="1.5" stroke-dasharray="5,2" d="M465,-1143.1164C465,-1173.5869 465,-1215.3796 465,-1243.0686"/>
<polygon fill="#d0d0d0" stroke="#d0d0d0" stroke-width="1.5" points="468.5001,-1142.8525 465,-1132.8526 461.5001,-1142.8526 468.5001,-1142.8525"/>
</g>
<!-- DS&#45;1|arpa|8|42581|2 -->
<g id="DS&#45;1|arpa|8|42581|2" class="node">
<title>DS&#45;1|arpa|8|42581|2</title>
<ellipse fill="#ffffff" stroke="#0a879a" stroke-width="1.5" cx="585" cy="-1272.2504" rx="48.1667" ry="21.4286"/>
<text text-anchor="start" x="576" y="-1274.6504" font-family="Helvetica,sans-Serif" font-size="12.00" fill="#000000">DS</text>
<text text-anchor="start" x="559" y="-1264.2504" font-family="Times,serif" font-size="10.00" fill="#000000">digest alg=2</text>
</g>
<!-- DNSKEY&#45;6|arpa|8|42581&#45;&gt;DS&#45;1|arpa|8|42581|2 -->
<g id="digest&#45;DNSKEY&#45;6|arpa|8|42581|DS&#45;1|arpa|8|42581|2|0a879a|solid" class="edge">
<title>DNSKEY&#45;6|arpa|8|42581&#45;&gt;DS&#45;1|arpa|8|42581|2</title>
<path fill="none" stroke="#0a879a" stroke-width="1.5" d="M491.4888,-1139.4607C502.8579,-1154.6744 516.2112,-1172.7514 528,-1189.259 543.0342,-1210.3112 559.7361,-1234.7599 571.1526,-1251.6416"/>
<polygon fill="#0a879a" stroke="#0a879a" stroke-width="1.5" points="494.1959,-1137.2365 485.3993,-1131.3313 488.5934,-1141.4333 494.1959,-1137.2365"/>
</g>
<!-- DNSKEY&#45;7|arpa|8|3153 -->
<g id="DNSKEY&#45;7|arpa|8|3153" class="node">
<title>DNSKEY&#45;7|arpa|8|3153</title>
<ellipse fill="#ffffff" stroke="#0a879a" stroke-width="1.5" cx="571" cy="-1025.8062" rx="56.6372" ry="28.0702"/>
<text text-anchor="start" x="545" y="-1033.2062" font-family="Helvetica,sans-Serif" font-size="12.00" fill="#000000">DNSKEY</text>
<text text-anchor="start" x="539" y="-1022.8062" font-family="Times,serif" font-size="10.00" fill="#000000">alg=8, id=3153</text>
<text text-anchor="start" x="551.5" y="-1012.8062" font-family="Times,serif" font-size="10.00" fill="#000000">2048 bits</text>
</g>
<!-- DNSKEY&#45;7|arpa|8|3153&#45;&gt;DNSKEY&#45;6|arpa|8|42581 -->
<g id="RRSIG&#45;DNSKEY&#45;7|arpa|8|3153|DNSKEY&#45;6|arpa|8|42581|0a879a|solid" class="edge">
<title>DNSKEY&#45;7|arpa|8|3153&#45;&gt;DNSKEY&#45;6|arpa|8|42581</title>
<path fill="none" stroke="#0a879a" stroke-width="1.5" d="M530.9453,-1055.4953C519.9068,-1063.6772 508.0702,-1072.4506 497.5148,-1080.2743"/>
<polygon fill="#0a879a" stroke="#0a879a" stroke-width="1.5" points="533.2469,-1058.1459 539.1965,-1049.3794 529.0786,-1052.5223 533.2469,-1058.1459"/>
</g>
<!-- DNSKEY&#45;8|arpa|8|64000 -->
<g id="DNSKEY&#45;8|arpa|8|64000" class="node">
<title>DNSKEY&#45;8|arpa|8|64000</title>
<ellipse fill="#ffffff" stroke="#0a879a" stroke-width="1.5" cx="436" cy="-1025.8062" rx="60.623" ry="28.0702"/>
<text text-anchor="start" x="410" y="-1033.2062" font-family="Helvetica,sans-Serif" font-size="12.00" fill="#000000">DNSKEY</text>
<text text-anchor="start" x="401" y="-1022.8062" font-family="Times,serif" font-size="10.00" fill="#000000">alg=8, id=64000</text>
<text text-anchor="start" x="416.5" y="-1012.8062" font-family="Times,serif" font-size="10.00" fill="#000000">2048 bits</text>
</g>
<!-- DNSKEY&#45;8|arpa|8|64000&#45;&gt;DNSKEY&#45;6|arpa|8|42581 -->
<g id="RRSIG&#45;DNSKEY&#45;8|arpa|8|64000|DNSKEY&#45;6|arpa|8|42581|0a879a|solid" class="edge">
<title>DNSKEY&#45;8|arpa|8|64000&#45;&gt;DNSKEY&#45;6|arpa|8|42581</title>
<path fill="none" stroke="#0a879a" stroke-width="1.5" d="M449.8082,-1063.2162C451.4309,-1067.6125 453.0652,-1072.0402 454.6295,-1076.2784"/>
<polygon fill="#0a879a" stroke="#0a879a" stroke-width="1.5" points="453.0522,-1061.8971 446.306,-1053.7278 446.4853,-1064.3211 453.0522,-1061.8971"/>
</g>
<!-- DS&#45;2|ip6.arpa|8|64060|2 -->
<g id="DS&#45;2|ip6.arpa|8|64060|2" class="node">
<title>DS&#45;2|ip6.arpa|8|64060|2</title>
<ellipse fill="#ffffff" stroke="#0a879a" stroke-width="1.5" cx="466" cy="-954.3087" rx="48.1667" ry="21.4286"/>
<text text-anchor="start" x="457" y="-956.7087" font-family="Helvetica,sans-Serif" font-size="12.00" fill="#000000">DS</text>
<text text-anchor="start" x="440" y="-946.3087" font-family="Times,serif" font-size="10.00" fill="#000000">digest alg=2</text>
</g>
<!-- DS&#45;2|ip6.arpa|8|64060|2&#45;&gt;DNSKEY&#45;8|arpa|8|64000 -->
<g id="RRSIG&#45;DS&#45;2|ip6.arpa|8|64060|2|DNSKEY&#45;8|arpa|8|64000|0a879a|solid" class="edge">
<title>DS&#45;2|ip6.arpa|8|64060|2&#45;&gt;DNSKEY&#45;8|arpa|8|64000</title>
<path fill="none" stroke="#0a879a" stroke-width="1.5" d="M453.2351,-984.7307C451.3873,-989.1343 449.4933,-993.6483 447.6686,-997.9971"/>
<polygon fill="#0a879a" stroke="#0a879a" stroke-width="1.5" points="456.5195,-985.949 457.1613,-975.3736 450.0647,-983.2406 456.5195,-985.949"/>
</g>
<!-- DS&#45;3|ip6.arpa|8|45094|2 -->
<g id="DS&#45;3|ip6.arpa|8|45094|2" class="node">
<title>DS&#45;3|ip6.arpa|8|45094|2</title>
<ellipse fill="#ffffff" stroke="#0a879a" stroke-width="1.5" cx="580" cy="-954.3087" rx="48.1667" ry="21.4286"/>
<text text-anchor="start" x="571" y="-956.7087" font-family="Helvetica,sans-Serif" font-size="12.00" fill="#000000">DS</text>
<text text-anchor="start" x="554" y="-946.3087" font-family="Times,serif" font-size="10.00" fill="#000000">digest alg=2</text>
</g>
<!-- DS&#45;3|ip6.arpa|8|45094|2&#45;&gt;DNSKEY&#45;8|arpa|8|64000 -->
<g id="RRSIG&#45;DS&#45;3|ip6.arpa|8|45094|2|DNSKEY&#45;8|arpa|8|64000|0a879a|solid" class="edge">
<title>DS&#45;3|ip6.arpa|8|45094|2&#45;&gt;DNSKEY&#45;8|arpa|8|64000</title>
<path fill="none" stroke="#0a879a" stroke-width="1.5" d="M538.9494,-974.6908C519.7722,-984.2124 496.9771,-995.5304 477.7172,-1005.0932"/>
<polygon fill="#0a879a" stroke="#0a879a" stroke-width="1.5" points="540.6415,-977.7584 548.0417,-970.1763 537.5285,-971.4886 540.6415,-977.7584"/>
</g>
<!-- DS&#45;4|ip6.arpa|8|13880|2 -->
<g id="DS&#45;4|ip6.arpa|8|13880|2" class="node">
<title>DS&#45;4|ip6.arpa|8|13880|2</title>
<ellipse fill="#ffffff" stroke="#0a879a" stroke-width="1.5" cx="352" cy="-954.3087" rx="48.1667" ry="21.4286"/>
<text text-anchor="start" x="343" y="-956.7087" font-family="Helvetica,sans-Serif" font-size="12.00" fill="#000000">DS</text>
<text text-anchor="start" x="326" y="-946.3087" font-family="Times,serif" font-size="10.00" fill="#000000">digest alg=2</text>
</g>
<!-- DS&#45;4|ip6.arpa|8|13880|2&#45;&gt;DNSKEY&#45;8|arpa|8|64000 -->
<g id="RRSIG&#45;DS&#45;4|ip6.arpa|8|13880|2|DNSKEY&#45;8|arpa|8|64000|0a879a|solid" class="edge">
<title>DS&#45;4|ip6.arpa|8|13880|2&#45;&gt;DNSKEY&#45;8|arpa|8|64000</title>
<path fill="none" stroke="#0a879a" stroke-width="1.5" d="M382.2471,-980.0539C390.2373,-986.8548 398.8446,-994.181 406.7793,-1000.9347"/>
<polygon fill="#0a879a" stroke="#0a879a" stroke-width="1.5" points="384.3941,-977.2851 374.5105,-973.4687 379.8569,-982.6157 384.3941,-977.2851"/>
</g>
<!-- cluster_2.4.6.e.c.0.a.2.ip6.arpa_top -->
<!-- cluster_0.a.2.ip6.arpa_bottom -->
<!-- cluster_2.4.6.e.c.0.a.2.ip6.arpa_top&#45;&gt;cluster_0.a.2.ip6.arpa_bottom -->
<g id="del&#45;2.4.6.e.c.0.a.2.ip6.arpa|0.a.2.ip6.arpa" class="edge">
<title>cluster_2.4.6.e.c.0.a.2.ip6.arpa_top&#45;&gt;cluster_0.a.2.ip6.arpa_bottom</title>
<path fill="none" stroke="#0a879a" stroke-width="5" d="M290.6949,-315.3095C287.315,-321.5484 283.3696,-329.664 281,-337.3371"/>
<polygon fill="#0a879a" stroke="#0a879a" stroke-width="5" points="286.7697,-323.9538 291.9336,-314.3371 281.3661,-317.0713 286.7697,-323.9538"/>
</g>
<!-- cluster_2.4.6.e.c.0.a.2.ip6.arpa_bottom -->
<!-- RRset&#45;10|2.4.6.e.c.0.a.2.ip6.arpa|SOA -->
<g id="RRset&#45;10|2.4.6.e.c.0.a.2.ip6.arpa|SOA" class="node">
<title>RRset&#45;10|2.4.6.e.c.0.a.2.ip6.arpa|SOA</title>
<path fill="#ffffff" stroke="#0a879a" stroke-width="1.5" d="M170,-123.6C170,-123.6 28,-123.6 28,-123.6 22,-123.6 16,-117.6 16,-111.6 16,-111.6 16,-99.6 16,-99.6 16,-93.6 22,-87.6 28,-87.6 28,-87.6 170,-87.6 170,-87.6 176,-87.6 182,-93.6 182,-99.6 182,-99.6 182,-111.6 182,-111.6 182,-117.6 176,-123.6 170,-123.6"/>
<text text-anchor="start" x="24" y="-102.5" font-family="Helvetica,sans-Serif" font-size="12.00" fill="#000000">2.4.6.e.c.0.a.2.ip6.arpa/SOA</text>
</g>
<!-- cluster_2.4.6.e.c.0.a.2.ip6.arpa_bottom&#45;&gt;RRset&#45;10|2.4.6.e.c.0.a.2.ip6.arpa|SOA -->
<!-- RRset&#45;11|2.4.6.e.c.0.a.2.ip6.arpa|NSEC3PARAM -->
<g id="RRset&#45;11|2.4.6.e.c.0.a.2.ip6.arpa|NSEC3PARAM" class="node">
<title>RRset&#45;11|2.4.6.e.c.0.a.2.ip6.arpa|NSEC3PARAM</title>
<path fill="#ffffff" stroke="#0a879a" stroke-width="1.5" d="M413.5,-123.6C413.5,-123.6 212.5,-123.6 212.5,-123.6 206.5,-123.6 200.5,-117.6 200.5,-111.6 200.5,-111.6 200.5,-99.6 200.5,-99.6 200.5,-93.6 206.5,-87.6 212.5,-87.6 212.5,-87.6 413.5,-87.6 413.5,-87.6 419.5,-87.6 425.5,-93.6 425.5,-99.6 425.5,-99.6 425.5,-111.6 425.5,-111.6 425.5,-117.6 419.5,-123.6 413.5,-123.6"/>
<text text-anchor="start" x="208.5" y="-102.5" font-family="Helvetica,sans-Serif" font-size="12.00" fill="#000000">2.4.6.e.c.0.a.2.ip6.arpa/NSEC3PARAM</text>
</g>
<!-- cluster_2.4.6.e.c.0.a.2.ip6.arpa_bottom&#45;&gt;RRset&#45;11|2.4.6.e.c.0.a.2.ip6.arpa|NSEC3PARAM -->
<!-- RRset&#45;12|2.4.6.e.c.0.a.2.ip6.arpa|NS -->
<g id="RRset&#45;12|2.4.6.e.c.0.a.2.ip6.arpa|NS" class="node">
<title>RRset&#45;12|2.4.6.e.c.0.a.2.ip6.arpa|NS</title>
<path fill="#ffffff" stroke="#0a879a" stroke-width="1.5" d="M590,-123.6C590,-123.6 456,-123.6 456,-123.6 450,-123.6 444,-117.6 444,-111.6 444,-111.6 444,-99.6 444,-99.6 444,-93.6 450,-87.6 456,-87.6 456,-87.6 590,-87.6 590,-87.6 596,-87.6 602,-93.6 602,-99.6 602,-99.6 602,-111.6 602,-111.6 602,-117.6 596,-123.6 590,-123.6"/>
<text text-anchor="start" x="452" y="-102.5" font-family="Helvetica,sans-Serif" font-size="12.00" fill="#000000">2.4.6.e.c.0.a.2.ip6.arpa/NS</text>
</g>
<!-- cluster_2.4.6.e.c.0.a.2.ip6.arpa_bottom&#45;&gt;RRset&#45;12|2.4.6.e.c.0.a.2.ip6.arpa|NS -->
<!-- DNSKEY&#45;0|2.4.6.e.c.0.a.2.ip6.arpa|14|42988 -->
<g id="DNSKEY&#45;0|2.4.6.e.c.0.a.2.ip6.arpa|14|42988" class="node">
<title>DNSKEY&#45;0|2.4.6.e.c.0.a.2.ip6.arpa|14|42988</title>
<ellipse fill="#d3d3d3" stroke="#0a879a" stroke-width="1.5" cx="313" cy="-252.4528" rx="64.1938" ry="28.0702"/>
<text text-anchor="start" x="287" y="-259.8528" font-family="Helvetica,sans-Serif" font-size="12.00" fill="#000000">DNSKEY</text>
<text text-anchor="start" x="275.5" y="-249.4528" font-family="Times,serif" font-size="10.00" fill="#000000">alg=14, id=42988</text>
<text text-anchor="start" x="296" y="-239.4528" font-family="Times,serif" font-size="10.00" fill="#000000">768 bits</text>
</g>
<!-- DNSKEY&#45;0|2.4.6.e.c.0.a.2.ip6.arpa|14|42988&#45;&gt;cluster_2.4.6.e.c.0.a.2.ip6.arpa_top -->
<!-- DNSKEY&#45;0|2.4.6.e.c.0.a.2.ip6.arpa|14|42988&#45;&gt;DNSKEY&#45;0|2.4.6.e.c.0.a.2.ip6.arpa|14|42988 -->
<g id="RRSIG&#45;DNSKEY&#45;0|2.4.6.e.c.0.a.2.ip6.arpa|14|42988|DNSKEY&#45;0|2.4.6.e.c.0.a.2.ip6.arpa|14|42988|0a879a|solid" class="edge">
<title>DNSKEY&#45;0|2.4.6.e.c.0.a.2.ip6.arpa|14|42988&#45;&gt;DNSKEY&#45;0|2.4.6.e.c.0.a.2.ip6.arpa|14|42988</title>
<path fill="none" stroke="#0a879a" stroke-width="1.5" d="M383.8281,-244.4948C390.8675,-246.0868 395.3467,-248.7394 395.3467,-252.4528 395.3467,-257.7341 386.2864,-260.8698 373.687,-261.86"/>
<polygon fill="#0a879a" stroke="#0a879a" stroke-width="1.5" points="384.0816,-240.9955 373.687,-243.0456 383.0912,-247.9251 384.0816,-240.9955"/>
</g>
<!-- DS&#45;6_7|2.4.6.e.c.0.a.2.ip6.arpa|14|42988|2_4 -->
<g id="DS&#45;6_7|2.4.6.e.c.0.a.2.ip6.arpa|14|42988|2_4" class="node">
<title>DS&#45;6_7|2.4.6.e.c.0.a.2.ip6.arpa|14|42988|2_4</title>
<ellipse fill="#ffffff" stroke="#0a879a" stroke-width="1.5" cx="346" cy="-412.5503" rx="55.7232" ry="21.4286"/>
<text text-anchor="start" x="337" y="-414.9503" font-family="Helvetica,sans-Serif" font-size="12.00" fill="#000000">DS</text>
<text text-anchor="start" x="314.5" y="-404.5503" font-family="Times,serif" font-size="10.00" fill="#000000">digest algs=2,4</text>
</g>
<!-- DNSKEY&#45;0|2.4.6.e.c.0.a.2.ip6.arpa|14|42988&#45;&gt;DS&#45;6_7|2.4.6.e.c.0.a.2.ip6.arpa|14|42988|2_4 -->
<g id="digest&#45;DNSKEY&#45;0|2.4.6.e.c.0.a.2.ip6.arpa|14|42988|DS&#45;6_7|2.4.6.e.c.0.a.2.ip6.arpa|14|42988|2_4|0a879a|solid" class="edge">
<title>DNSKEY&#45;0|2.4.6.e.c.0.a.2.ip6.arpa|14|42988&#45;&gt;DS&#45;6_7|2.4.6.e.c.0.a.2.ip6.arpa|14|42988|2_4</title>
<path fill="none" stroke="#0a879a" stroke-width="1.5" d="M320.9198,-290.8751C327.4031,-322.3287 336.3352,-365.6622 341.6051,-391.2285"/>
<polygon fill="#0a879a" stroke="#0a879a" stroke-width="1.5" points="324.2706,-289.794 318.8238,-280.7065 317.4147,-291.2072 324.2706,-289.794"/>
</g>
<!-- DNSKEY&#45;1|2.4.6.e.c.0.a.2.ip6.arpa|14|58606 -->
<g id="DNSKEY&#45;1|2.4.6.e.c.0.a.2.ip6.arpa|14|58606" class="node">
<title>DNSKEY&#45;1|2.4.6.e.c.0.a.2.ip6.arpa|14|58606</title>
<ellipse fill="#ffffff" stroke="#0a879a" stroke-width="1.5" cx="313" cy="-173.8843" rx="64.1938" ry="28.0702"/>
<text text-anchor="start" x="287" y="-181.2843" font-family="Helvetica,sans-Serif" font-size="12.00" fill="#000000">DNSKEY</text>
<text text-anchor="start" x="275.5" y="-170.8843" font-family="Times,serif" font-size="10.00" fill="#000000">alg=14, id=58606</text>
<text text-anchor="start" x="296" y="-160.8843" font-family="Times,serif" font-size="10.00" fill="#000000">768 bits</text>
</g>
<!-- DNSKEY&#45;1|2.4.6.e.c.0.a.2.ip6.arpa|14|58606&#45;&gt;DNSKEY&#45;0|2.4.6.e.c.0.a.2.ip6.arpa|14|42988 -->
<g id="RRSIG&#45;DNSKEY&#45;1|2.4.6.e.c.0.a.2.ip6.arpa|14|58606|DNSKEY&#45;0|2.4.6.e.c.0.a.2.ip6.arpa|14|42988|0a879a|solid" class="edge">
<title>DNSKEY&#45;1|2.4.6.e.c.0.a.2.ip6.arpa|14|58606&#45;&gt;DNSKEY&#45;0|2.4.6.e.c.0.a.2.ip6.arpa|14|42988</title>
<path fill="none" stroke="#0a879a" stroke-width="1.5" d="M313,-212.4983C313,-216.4185 313,-220.3476 313,-224.1294"/>
<polygon fill="#0a879a" stroke="#0a879a" stroke-width="1.5" points="316.5001,-212.2493 313,-202.2493 309.5001,-212.2494 316.5001,-212.2493"/>
</g>
<!-- RRset&#45;10|2.4.6.e.c.0.a.2.ip6.arpa|SOA&#45;&gt;DNSKEY&#45;1|2.4.6.e.c.0.a.2.ip6.arpa|14|58606 -->
<g id="RRSIG&#45;RRset&#45;10|2.4.6.e.c.0.a.2.ip6.arpa|SOA|DNSKEY&#45;1|2.4.6.e.c.0.a.2.ip6.arpa|14|58606|0a879a|solid" class="edge">
<title>RRset&#45;10|2.4.6.e.c.0.a.2.ip6.arpa|SOA&#45;&gt;DNSKEY&#45;1|2.4.6.e.c.0.a.2.ip6.arpa|14|58606</title>
<path fill="none" stroke="#0a879a" stroke-width="1.5" d="M165.2632,-126.7436C195.9322,-136.5296 231.8498,-147.9904 260.5903,-157.1611"/>
<polygon fill="#0a879a" stroke="#0a879a" stroke-width="1.5" points="166.0967,-123.3358 155.5059,-123.6302 163.9687,-130.0045 166.0967,-123.3358"/>
</g>
<!-- RRset&#45;11|2.4.6.e.c.0.a.2.ip6.arpa|NSEC3PARAM&#45;&gt;DNSKEY&#45;1|2.4.6.e.c.0.a.2.ip6.arpa|14|58606 -->
<g id="RRSIG&#45;RRset&#45;11|2.4.6.e.c.0.a.2.ip6.arpa|NSEC3PARAM|DNSKEY&#45;1|2.4.6.e.c.0.a.2.ip6.arpa|14|58606|0a879a|solid" class="edge">
<title>RRset&#45;11|2.4.6.e.c.0.a.2.ip6.arpa|NSEC3PARAM&#45;&gt;DNSKEY&#45;1|2.4.6.e.c.0.a.2.ip6.arpa|14|58606</title>
<path fill="none" stroke="#0a879a" stroke-width="1.5" d="M313,-134.1077C313,-137.8746 313,-141.7355 313,-145.5003"/>
<polygon fill="#0a879a" stroke="#0a879a" stroke-width="1.5" points="316.5001,-133.8989 313,-123.8989 309.5001,-133.899 316.5001,-133.8989"/>
</g>
<!-- RRset&#45;12|2.4.6.e.c.0.a.2.ip6.arpa|NS&#45;&gt;DNSKEY&#45;1|2.4.6.e.c.0.a.2.ip6.arpa|14|58606 -->
<g id="RRSIG&#45;RRset&#45;12|2.4.6.e.c.0.a.2.ip6.arpa|NS|DNSKEY&#45;1|2.4.6.e.c.0.a.2.ip6.arpa|14|58606|0a879a|solid" class="edge">
<title>RRset&#45;12|2.4.6.e.c.0.a.2.ip6.arpa|NS&#45;&gt;DNSKEY&#45;1|2.4.6.e.c.0.a.2.ip6.arpa|14|58606</title>
<path fill="none" stroke="#0a879a" stroke-width="1.5" d="M458.0125,-126.7315C428.0355,-136.479 392.9419,-147.8901 364.787,-157.0451"/>
<polygon fill="#0a879a" stroke="#0a879a" stroke-width="1.5" points="459.1227,-130.051 467.5503,-123.6302 456.9581,-123.3941 459.1227,-130.051"/>
</g>
<!-- cluster_0.a.2.ip6.arpa_top -->
<!-- cluster_ip6.arpa_bottom -->
<!-- cluster_0.a.2.ip6.arpa_top&#45;&gt;cluster_ip6.arpa_bottom -->
<g id="del&#45;0.a.2.ip6.arpa|ip6.arpa" class="edge">
<title>cluster_0.a.2.ip6.arpa_top&#45;&gt;cluster_ip6.arpa_bottom</title>
<path fill="none" stroke="#0a879a" stroke-width="5" d="M311.5946,-547.5983C309.3434,-553.8301 306.7228,-561.7173 305,-568.932"/>
<polygon fill="#0a879a" stroke="#0a879a" stroke-width="5" points="312.4719,-556.8459 312.2909,-545.932 304.3983,-553.472 312.4719,-556.8459"/>
</g>
<!-- DNSKEY&#45;2|0.a.2.ip6.arpa|13|16964 -->
<g id="DNSKEY&#45;2|0.a.2.ip6.arpa|13|16964" class="node">
<title>DNSKEY&#45;2|0.a.2.ip6.arpa|13|16964</title>
<ellipse fill="#d3d3d3" stroke="#0a879a" stroke-width="1.5" cx="332" cy="-484.0478" rx="64.1938" ry="28.0702"/>
<text text-anchor="start" x="306" y="-491.4478" font-family="Helvetica,sans-Serif" font-size="12.00" fill="#000000">DNSKEY</text>
<text text-anchor="start" x="294.5" y="-481.0478" font-family="Times,serif" font-size="10.00" fill="#000000">alg=13, id=16964</text>
<text text-anchor="start" x="315" y="-471.0478" font-family="Times,serif" font-size="10.00" fill="#000000">512 bits</text>
</g>
<!-- DNSKEY&#45;2|0.a.2.ip6.arpa|13|16964&#45;&gt;cluster_0.a.2.ip6.arpa_top -->
<!-- DNSKEY&#45;2|0.a.2.ip6.arpa|13|16964&#45;&gt;DNSKEY&#45;2|0.a.2.ip6.arpa|13|16964 -->
<g id="RRSIG&#45;DNSKEY&#45;2|0.a.2.ip6.arpa|13|16964|DNSKEY&#45;2|0.a.2.ip6.arpa|13|16964|0a879a|solid" class="edge">
<title>DNSKEY&#45;2|0.a.2.ip6.arpa|13|16964&#45;&gt;DNSKEY&#45;2|0.a.2.ip6.arpa|13|16964</title>
<path fill="none" stroke="#0a879a" stroke-width="1.5" d="M402.8281,-476.0897C409.8675,-477.6817 414.3467,-480.3344 414.3467,-484.0478 414.3467,-489.329 405.2864,-492.4648 392.687,-493.455"/>
<polygon fill="#0a879a" stroke="#0a879a" stroke-width="1.5" points="403.0816,-472.5905 392.687,-474.6405 402.0912,-479.5201 403.0816,-472.5905"/>
</g>
<!-- DS&#45;5|0.a.2.ip6.arpa|13|16964|2 -->
<g id="DS&#45;5|0.a.2.ip6.arpa|13|16964|2" class="node">
<title>DS&#45;5|0.a.2.ip6.arpa|13|16964|2</title>
<ellipse fill="#ffffff" stroke="#0a879a" stroke-width="1.5" cx="362" cy="-644.1452" rx="48.1667" ry="21.4286"/>
<text text-anchor="start" x="353" y="-646.5452" font-family="Helvetica,sans-Serif" font-size="12.00" fill="#000000">DS</text>
<text text-anchor="start" x="336" y="-636.1452" font-family="Times,serif" font-size="10.00" fill="#000000">digest alg=2</text>
</g>
<!-- DNSKEY&#45;2|0.a.2.ip6.arpa|13|16964&#45;&gt;DS&#45;5|0.a.2.ip6.arpa|13|16964|2 -->
<g id="digest&#45;DNSKEY&#45;2|0.a.2.ip6.arpa|13|16964|DS&#45;5|0.a.2.ip6.arpa|13|16964|2|0a879a|solid" class="edge">
<title>DNSKEY&#45;2|0.a.2.ip6.arpa|13|16964&#45;&gt;DS&#45;5|0.a.2.ip6.arpa|13|16964|2</title>
<path fill="none" stroke="#0a879a" stroke-width="1.5" d="M339.1998,-522.4701C345.0938,-553.9237 353.2138,-597.2571 358.0046,-622.8235"/>
<polygon fill="#0a879a" stroke="#0a879a" stroke-width="1.5" points="342.5763,-521.4857 337.2943,-512.3014 335.6961,-522.775 342.5763,-521.4857"/>
</g>
<!-- DS&#45;6_7|2.4.6.e.c.0.a.2.ip6.arpa|14|42988|2_4&#45;&gt;DNSKEY&#45;2|0.a.2.ip6.arpa|13|16964 -->
<g id="RRSIG&#45;DS&#45;6_7|2.4.6.e.c.0.a.2.ip6.arpa|14|42988|2_4|DNSKEY&#45;2|0.a.2.ip6.arpa|13|16964|0a879a|solid" class="edge">
<title>DS&#45;6_7|2.4.6.e.c.0.a.2.ip6.arpa|14|42988|2_4&#45;&gt;DNSKEY&#45;2|0.a.2.ip6.arpa|13|16964</title>
<path fill="none" stroke="#0a879a" stroke-width="1.5" d="M339.8372,-444.0235C339.0744,-447.919 338.2982,-451.8832 337.5454,-455.7275"/>
<polygon fill="#0a879a" stroke="#0a879a" stroke-width="1.5" points="343.3126,-444.4881 341.7995,-434.0019 336.4431,-443.1429 343.3126,-444.4881"/>
</g>
<!-- cluster_._top -->
<!-- DNSKEY&#45;9|.|8|47671 -->
<g id="DNSKEY&#45;9|.|8|47671" class="node">
<title>DNSKEY&#45;9|.|8|47671</title>
<ellipse fill="#ffffff" stroke="#0a879a" stroke-width="1.5" cx="450" cy="-1351.526" rx="60.623" ry="28.0702"/>
<text text-anchor="start" x="424" y="-1358.926" font-family="Helvetica,sans-Serif" font-size="12.00" fill="#000000">DNSKEY</text>
<text text-anchor="start" x="415" y="-1348.526" font-family="Times,serif" font-size="10.00" fill="#000000">alg=8, id=47671</text>
<text text-anchor="start" x="430.5" y="-1338.526" font-family="Times,serif" font-size="10.00" fill="#000000">2048 bits</text>
</g>
<!-- DNSKEY&#45;10|.|8|20326 -->
<g id="DNSKEY&#45;10|.|8|20326" class="node">
<title>DNSKEY&#45;10|.|8|20326</title>
<ellipse fill="#d3d3d3" stroke="#0a879a" stroke-width="1.5" cx="511" cy="-1434.0946" rx="60.6345" ry="28.0965"/>
<ellipse fill="none" stroke="#0a879a" stroke-width="1.5" cx="511" cy="-1434.0946" rx="64.6229" ry="32.07"/>
<text text-anchor="start" x="485" y="-1441.4946" font-family="Helvetica,sans-Serif" font-size="12.00" fill="#000000">DNSKEY</text>
<text text-anchor="start" x="476" y="-1431.0946" font-family="Times,serif" font-size="10.00" fill="#000000">alg=8, id=20326</text>
<text text-anchor="start" x="491.5" y="-1421.0946" font-family="Times,serif" font-size="10.00" fill="#000000">2048 bits</text>
</g>
<!-- DNSKEY&#45;9|.|8|47671&#45;&gt;DNSKEY&#45;10|.|8|20326 -->
<g id="RRSIG&#45;DNSKEY&#45;9|.|8|47671|DNSKEY&#45;10|.|8|20326|0a879a|solid" class="edge">
<title>DNSKEY&#45;9|.|8|47671&#45;&gt;DNSKEY&#45;10|.|8|20326</title>
<path fill="none" stroke="#0a879a" stroke-width="1.5" d="M475.9451,-1386.6449C480.1026,-1392.2724 484.3756,-1398.0562 488.4456,-1403.5654"/>
<polygon fill="#0a879a" stroke="#0a879a" stroke-width="1.5" points="478.7309,-1384.5255 469.9737,-1378.5621 473.1007,-1388.6849 478.7309,-1384.5255"/>
</g>
<!-- DNSKEY&#45;10|.|8|20326&#45;&gt;cluster_._top -->
<!-- DNSKEY&#45;10|.|8|20326&#45;&gt;DNSKEY&#45;10|.|8|20326 -->
<g id="RRSIG&#45;DNSKEY&#45;10|.|8|20326|DNSKEY&#45;10|.|8|20326|0a879a|solid" class="edge">
<title>DNSKEY&#45;10|.|8|20326&#45;&gt;DNSKEY&#45;10|.|8|20326</title>
<path fill="none" stroke="#0a879a" stroke-width="1.5" d="M582.6332,-1425.6246C589.4782,-1427.3491 593.8112,-1430.1725 593.8112,-1434.0946 593.8112,-1439.6727 585.0469,-1443.0283 572.7563,-1444.1614"/>
<polygon fill="#0a879a" stroke="#0a879a" stroke-width="1.5" points="583.1867,-1422.1687 572.7563,-1424.0278 582.0695,-1429.079 583.1867,-1422.1687"/>
</g>
<!-- DNSKEY&#45;11|.|8|20826 -->
<g id="DNSKEY&#45;11|.|8|20826" class="node">
<title>DNSKEY&#45;11|.|8|20826</title>
<ellipse fill="#ffffff" stroke="#0a879a" stroke-width="1.5" cx="590" cy="-1351.526" rx="60.623" ry="28.0702"/>
<text text-anchor="start" x="564" y="-1358.926" font-family="Helvetica,sans-Serif" font-size="12.00" fill="#000000">DNSKEY</text>
<text text-anchor="start" x="555" y="-1348.526" font-family="Times,serif" font-size="10.00" fill="#000000">alg=8, id=20826</text>
<text text-anchor="start" x="570.5" y="-1338.526" font-family="Times,serif" font-size="10.00" fill="#000000">2048 bits</text>
</g>
<!-- DNSKEY&#45;11|.|8|20826&#45;&gt;DNSKEY&#45;10|.|8|20326 -->
<g id="RRSIG&#45;DNSKEY&#45;11|.|8|20826|DNSKEY&#45;10|.|8|20326|0a879a|solid" class="edge">
<title>DNSKEY&#45;11|.|8|20826&#45;&gt;DNSKEY&#45;10|.|8|20326</title>
<path fill="none" stroke="#0a879a" stroke-width="1.5" d="M557.8695,-1385.108C551.6606,-1391.5973 545.1998,-1398.3499 539.1305,-1404.6933"/>
<polygon fill="#0a879a" stroke="#0a879a" stroke-width="1.5" points="560.6196,-1387.2964 565.0039,-1377.6512 555.5617,-1382.4571 560.6196,-1387.2964"/>
</g>
<!-- DS&#45;0|arpa|8|42581|1&#45;&gt;DNSKEY&#45;9|.|8|47671 -->
<g id="RRSIG&#45;DS&#45;0|arpa|8|42581|1|DNSKEY&#45;9|.|8|47671|0a879a|solid" class="edge">
<title>DS&#45;0|arpa|8|42581|1&#45;&gt;DNSKEY&#45;9|.|8|47671</title>
<path fill="none" stroke="#0a879a" stroke-width="1.5" d="M457.6187,-1311.2607C456.8533,-1315.3059 456.0863,-1319.3597 455.3495,-1323.2537"/>
<polygon fill="#0a879a" stroke="#0a879a" stroke-width="1.5" points="461.0795,-1311.796 459.4997,-1301.3196 454.2015,-1310.4945 461.0795,-1311.796"/>
</g>
<!-- DS&#45;1|arpa|8|42581|2&#45;&gt;DNSKEY&#45;9|.|8|47671 -->
<g id="RRSIG&#45;DS&#45;1|arpa|8|42581|2|DNSKEY&#45;9|.|8|47671|0a879a|solid" class="edge">
<title>DS&#45;1|arpa|8|42581|2&#45;&gt;DNSKEY&#45;9|.|8|47671</title>
<path fill="none" stroke="#0a879a" stroke-width="1.5" d="M547.2726,-1294.4049C528.7353,-1305.2906 506.4514,-1318.3763 487.8919,-1329.2749"/>
<polygon fill="#0a879a" stroke="#0a879a" stroke-width="1.5" points="549.1883,-1297.3389 556.0391,-1289.257 545.6436,-1291.3027 549.1883,-1297.3389"/>
</g>
<!-- cluster_ip6.arpa_top -->
<!-- cluster_ip6.arpa_top&#45;&gt;cluster_arpa_bottom -->
<g id="del&#45;ip6.arpa|arpa" class="edge">
<title>cluster_ip6.arpa_top&#45;&gt;cluster_arpa_bottom</title>
<path fill="none" stroke="#0a879a" stroke-width="5" d="M304.6949,-857.068C301.315,-863.3069 297.3696,-871.4224 295,-879.0955"/>
<polygon fill="#0a879a" stroke="#0a879a" stroke-width="5" points="300.7697,-865.7122 305.9336,-856.0955 295.3661,-858.8298 300.7697,-865.7122"/>
</g>
<!-- DNSKEY&#45;3|ip6.arpa|8|39921 -->
<g id="DNSKEY&#45;3|ip6.arpa|8|39921" class="node">
<title>DNSKEY&#45;3|ip6.arpa|8|39921</title>
<ellipse fill="#ffffff" stroke="#0a879a" stroke-width="1.5" cx="362" cy="-715.6427" rx="60.623" ry="28.0702"/>
<text text-anchor="start" x="336" y="-723.0427" font-family="Helvetica,sans-Serif" font-size="12.00" fill="#000000">DNSKEY</text>
<text text-anchor="start" x="327" y="-712.6427" font-family="Times,serif" font-size="10.00" fill="#000000">alg=8, id=39921</text>
<text text-anchor="start" x="342.5" y="-702.6427" font-family="Times,serif" font-size="10.00" fill="#000000">1024 bits</text>
</g>
<!-- DNSKEY&#45;4|ip6.arpa|8|64060 -->
<g id="DNSKEY&#45;4|ip6.arpa|8|64060" class="node">
<title>DNSKEY&#45;4|ip6.arpa|8|64060</title>
<ellipse fill="#d3d3d3" stroke="#0a879a" stroke-width="1.5" cx="436" cy="-794.2113" rx="60.623" ry="28.0702"/>
<text text-anchor="start" x="410" y="-801.6113" font-family="Helvetica,sans-Serif" font-size="12.00" fill="#000000">DNSKEY</text>
<text text-anchor="start" x="401" y="-791.2113" font-family="Times,serif" font-size="10.00" fill="#000000">alg=8, id=64060</text>
<text text-anchor="start" x="416.5" y="-781.2113" font-family="Times,serif" font-size="10.00" fill="#000000">2048 bits</text>
</g>
<!-- DNSKEY&#45;3|ip6.arpa|8|39921&#45;&gt;DNSKEY&#45;4|ip6.arpa|8|64060 -->
<g id="RRSIG&#45;DNSKEY&#45;3|ip6.arpa|8|39921|DNSKEY&#45;4|ip6.arpa|8|64060|0a879a|solid" class="edge">
<title>DNSKEY&#45;3|ip6.arpa|8|39921&#45;&gt;DNSKEY&#45;4|ip6.arpa|8|64060</title>
<path fill="none" stroke="#0a879a" stroke-width="1.5" d="M393.5484,-749.1388C399.542,-755.5024 405.7306,-762.0732 411.4667,-768.1633"/>
<polygon fill="#0a879a" stroke="#0a879a" stroke-width="1.5" points="396.0451,-746.6848 386.6409,-741.8049 390.9494,-751.4842 396.0451,-746.6848"/>
</g>
<!-- DNSKEY&#45;4|ip6.arpa|8|64060&#45;&gt;DS&#45;2|ip6.arpa|8|64060|2 -->
<g id="digest&#45;DNSKEY&#45;4|ip6.arpa|8|64060|DS&#45;2|ip6.arpa|8|64060|2|0a879a|solid" class="edge">
<title>DNSKEY&#45;4|ip6.arpa|8|64060&#45;&gt;DS&#45;2|ip6.arpa|8|64060|2</title>
<path fill="none" stroke="#0a879a" stroke-width="1.5" d="M443.1998,-832.6336C449.0938,-864.0872 457.2138,-907.4206 462.0046,-932.987"/>
<polygon fill="#0a879a" stroke="#0a879a" stroke-width="1.5" points="446.5763,-831.6492 441.2943,-822.4649 439.6961,-832.9385 446.5763,-831.6492"/>
</g>
<!-- DNSKEY&#45;4|ip6.arpa|8|64060&#45;&gt;cluster_ip6.arpa_top -->
<!-- DNSKEY&#45;4|ip6.arpa|8|64060&#45;&gt;DNSKEY&#45;4|ip6.arpa|8|64060 -->
<g id="RRSIG&#45;DNSKEY&#45;4|ip6.arpa|8|64060|DNSKEY&#45;4|ip6.arpa|8|64060|0a879a|solid" class="edge">
<title>DNSKEY&#45;4|ip6.arpa|8|64060&#45;&gt;DNSKEY&#45;4|ip6.arpa|8|64060</title>
<path fill="none" stroke="#0a879a" stroke-width="1.5" d="M503.3958,-786.1626C510.3578,-787.7436 514.8112,-790.4265 514.8112,-794.2113 514.8112,-799.5941 505.8032,-802.7481 493.382,-803.6732"/>
<polygon fill="#0a879a" stroke="#0a879a" stroke-width="1.5" points="503.773,-782.6812 493.382,-784.7493 502.7947,-789.6125 503.773,-782.6812"/>
</g>
<!-- DNSKEY&#45;5|ip6.arpa|8|21619 -->
<g id="DNSKEY&#45;5|ip6.arpa|8|21619" class="node">
<title>DNSKEY&#45;5|ip6.arpa|8|21619</title>
<ellipse fill="#d3d3d3" stroke="#0a879a" stroke-width="1.5" cx="502" cy="-715.6427" rx="60.623" ry="28.0702"/>
<text text-anchor="start" x="476" y="-723.0427" font-family="Helvetica,sans-Serif" font-size="12.00" fill="#000000">DNSKEY</text>
<text text-anchor="start" x="467" y="-712.6427" font-family="Times,serif" font-size="10.00" fill="#000000">alg=8, id=21619</text>
<text text-anchor="start" x="482.5" y="-702.6427" font-family="Times,serif" font-size="10.00" fill="#000000">2048 bits</text>
</g>
<!-- DNSKEY&#45;5|ip6.arpa|8|21619&#45;&gt;DNSKEY&#45;4|ip6.arpa|8|64060 -->
<g id="RRSIG&#45;DNSKEY&#45;5|ip6.arpa|8|21619|DNSKEY&#45;4|ip6.arpa|8|64060|0a879a|solid" class="edge">
<title>DNSKEY&#45;5|ip6.arpa|8|21619&#45;&gt;DNSKEY&#45;4|ip6.arpa|8|64060</title>
<path fill="none" stroke="#0a879a" stroke-width="1.5" d="M473.0439,-750.113C468.1088,-755.9879 463.0512,-762.0086 458.3216,-767.6389"/>
<polygon fill="#0a879a" stroke="#0a879a" stroke-width="1.5" points="475.9033,-752.1506 479.6554,-742.2424 470.5434,-747.6482 475.9033,-752.1506"/>
</g>
<!-- DNSKEY&#45;5|ip6.arpa|8|21619&#45;&gt;DNSKEY&#45;5|ip6.arpa|8|21619 -->
<g id="RRSIG&#45;DNSKEY&#45;5|ip6.arpa|8|21619|DNSKEY&#45;5|ip6.arpa|8|21619|0a879a|solid" class="edge">
<title>DNSKEY&#45;5|ip6.arpa|8|21619&#45;&gt;DNSKEY&#45;5|ip6.arpa|8|21619</title>
<path fill="none" stroke="#0a879a" stroke-width="1.5" d="M566.2109,-703.9748C574.9708,-705.9188 580.8112,-709.8081 580.8112,-715.6427 580.8112,-723.504 570.2086,-727.8339 556.1477,-728.6323"/>
<polygon fill="#0a879a" stroke="#0a879a" stroke-width="1.5" points="566.5184,-700.4852 556.1477,-702.6531 565.6068,-707.4256 566.5184,-700.4852"/>
</g>
<!-- DNSKEY&#45;0|ip6.arpa|8|45094 -->
<g id="DNSKEY&#45;0|ip6.arpa|8|45094" class="node">
<title>DNSKEY&#45;0|ip6.arpa|8|45094</title>
<ellipse fill="#ffffff" stroke="#d0d0d0" stroke-width="1.5" stroke-dasharray="5,2" cx="594" cy="-794.2113" rx="60.623" ry="21.4286"/>
<text text-anchor="start" x="568" y="-796.6113" font-family="Helvetica,sans-Serif" font-size="12.00" fill="#000000">DNSKEY</text>
<text text-anchor="start" x="559" y="-786.2113" font-family="Times,serif" font-size="10.00" fill="#000000">alg=8, id=45094</text>
</g>
<!-- DNSKEY&#45;0|ip6.arpa|8|45094&#45;&gt;DS&#45;3|ip6.arpa|8|45094|2 -->
<g id="digest&#45;DNSKEY&#45;0|ip6.arpa|8|45094|DS&#45;3|ip6.arpa|8|45094|2|d0d0d0|dashed" class="edge">
<title>DNSKEY&#45;0|ip6.arpa|8|45094&#45;&gt;DS&#45;3|ip6.arpa|8|45094|2</title>
<path fill="none" stroke="#d0d0d0" stroke-width="1.5" stroke-dasharray="5,2" d="M591.2605,-825.5387C588.488,-857.244 584.2764,-905.4063 581.8668,-932.9611"/>
<polygon fill="#d0d0d0" stroke="#d0d0d0" stroke-width="1.5" points="594.7564,-825.7379 592.1409,-815.471 587.783,-825.128 594.7564,-825.7379"/>
</g>
<!-- DNSKEY&#45;0|ip6.arpa|8|45094&#45;&gt;cluster_ip6.arpa_top -->
<!-- DNSKEY&#45;0|ip6.arpa|8|13880 -->
<g id="DNSKEY&#45;0|ip6.arpa|8|13880" class="node">
<title>DNSKEY&#45;0|ip6.arpa|8|13880</title>
<ellipse fill="#ffffff" stroke="#d0d0d0" stroke-width="1.5" stroke-dasharray="5,2" cx="296" cy="-794.2113" rx="60.623" ry="21.4286"/>
<text text-anchor="start" x="270" y="-796.6113" font-family="Helvetica,sans-Serif" font-size="12.00" fill="#000000">DNSKEY</text>
<text text-anchor="start" x="261" y="-786.2113" font-family="Times,serif" font-size="10.00" fill="#000000">alg=8, id=13880</text>
</g>
<!-- DNSKEY&#45;0|ip6.arpa|8|13880&#45;&gt;DS&#45;4|ip6.arpa|8|13880|2 -->
<g id="digest&#45;DNSKEY&#45;0|ip6.arpa|8|13880|DS&#45;4|ip6.arpa|8|13880|2|d0d0d0|dashed" class="edge">
<title>DNSKEY&#45;0|ip6.arpa|8|13880&#45;&gt;DS&#45;4|ip6.arpa|8|13880|2</title>
<path fill="none" stroke="#d0d0d0" stroke-width="1.5" stroke-dasharray="5,2" d="M312.9254,-824.4323C316.1969,-830.9344 319.4083,-837.8518 322,-844.4955 333.6357,-874.3231 342.5585,-910.375 347.5424,-932.8291"/>
<polygon fill="#d0d0d0" stroke="#d0d0d0" stroke-width="1.5" points="315.8816,-822.5317 308.1543,-815.2833 309.6748,-825.7684 315.8816,-822.5317"/>
</g>
<!-- DNSKEY&#45;0|ip6.arpa|8|13880&#45;&gt;cluster_ip6.arpa_top -->
<!-- DS&#45;5|0.a.2.ip6.arpa|13|16964|2&#45;&gt;DNSKEY&#45;3|ip6.arpa|8|39921 -->
<g id="RRSIG&#45;DS&#45;5|0.a.2.ip6.arpa|13|16964|2|DNSKEY&#45;3|ip6.arpa|8|39921|0a879a|solid" class="edge">
<title>DS&#45;5|0.a.2.ip6.arpa|13|16964|2&#45;&gt;DNSKEY&#45;3|ip6.arpa|8|39921</title>
<path fill="none" stroke="#0a879a" stroke-width="1.5" d="M362,-675.6184C362,-679.5139 362,-683.4781 362,-687.3224"/>
<polygon fill="#0a879a" stroke="#0a879a" stroke-width="1.5" points="365.5001,-675.5968 362,-665.5968 358.5001,-675.5969 365.5001,-675.5968"/>
</g>
</g>
</svg>
